<svg width="2" height="17" viewBox="0 0 2 17" fill="none" xmlns="http://www.w3.org/2000/svg">
<path d="M1 15C1.55228 15 2 15.4477 2 16C2 16.5523 1.55228 17 1 17C0.447715 17 0 16.5523 0 16C0 15.4477 0.447715 15 1 15Z" fill="#9CA7B3"/>
<path d="M1 10C1.55228 10 2 10.4477 2 11C2 11.5523 1.55228 12 1 12C0.447715 12 0 11.5523 0 11C0 10.4477 0.447715 10 1 10Z" fill="#9CA7B3"/>
<path d="M1 5C1.55228 5 2 5.44772 2 6C2 6.55228 1.55228 7 1 7C0.447715 7 0 6.55228 0 6C0 5.44772 0.447715 5 1 5Z" fill="#9CA7B3"/>
<path d="M1 0C1.55228 0 2 0.447715 2 1C2 1.55228 1.55228 2 1 2C0.447715 2 0 1.55228 0 1C0 0.447715 0.447715 0 1 0Z" fill="#9CA7B3"/>
</svg>
