<svg width="36" height="24" viewBox="0 0 36 24" fill="none" xmlns="http://www.w3.org/2000/svg">
<g clip-path="url(#clip0_78_781)">
<rect x="-0.75" width="37.5" height="24" fill="#41479B"/>
<path d="M36.7499 0.362033C36.7499 0.00497901 36.4603 -0.284546 36.1033 -0.284546H33.2106L21.2326 7.5631V-0.284546H14.7671V7.5631L2.78919 -0.284546H-0.103421C-0.460475 -0.284546 -0.75 0.00497901 -0.75 0.362033V2.03422L9.5265 8.76713H-0.75V15.2326H9.5265L-0.75 21.9656V23.6378C-0.75 23.9949 -0.460475 24.2844 -0.103421 24.2844H2.78927L14.7672 16.4367V24.2844H21.2327V16.4367L33.2107 24.2844H36.1034C36.4605 24.2844 36.75 23.9949 36.75 23.6378V21.9656L26.4735 15.2327H36.7499V8.7672H26.4734L36.7499 2.03422V0.362033Z" fill="#F5F5F5"/>
<path d="M36.7499 10.0603H19.9396V-0.284546H16.0603V10.0603H-0.75V13.9395H16.0603V24.2844H19.9396V13.9395H36.7499V10.0603Z" fill="#FF4B55"/>
<path d="M12.3572 15.2327L-0.730957 23.7286C-0.685181 24.0408 -0.427736 24.2845 -0.102761 24.2845H0.787787L14.7323 15.2328L12.3572 15.2327Z" fill="#FF4B55"/>
<path d="M24.6202 15.2327H22.2451L36.1694 24.2711C36.4939 24.2365 36.75 23.9715 36.75 23.6378V23.1062L24.6202 15.2327Z" fill="#FF4B55"/>
<path d="M-0.75 1.07583L11.099 8.76725H13.4741L-0.373317 -0.221432C-0.594507 -0.118673 -0.75 0.102151 -0.75 0.362086V1.07583Z" fill="#FF4B55"/>
<path d="M23.608 8.76729L36.7276 0.250939C36.6731 -0.0509639 36.4212 -0.284386 36.1035 -0.284386H35.1772L21.2329 8.76729H23.608Z" fill="#FF4B55"/>
</g>
<defs>
<clipPath id="clip0_78_781">
<rect width="36" height="24" fill="white"/>
</clipPath>
</defs>
</svg>
