<svg width="24" height="24" viewBox="0 0 24 24" fill="none" xmlns="http://www.w3.org/2000/svg">
<path d="M19 2.25C20.4975 2.25 21.75 3.50254 21.75 5V19C21.75 20.4975 20.4975 21.75 19 21.75H15C14.5858 21.75 14.25 21.4142 14.25 21C14.25 20.5858 14.5858 20.25 15 20.25H19C19.6807 20.25 20.25 19.6807 20.25 19V5C20.25 4.31934 19.6807 3.75 19 3.75H15C14.5858 3.75 14.25 3.41421 14.25 3C14.25 2.58579 14.5858 2.25 15 2.25H19ZM9.46973 6.46973C9.76262 6.17686 10.2374 6.17684 10.5303 6.46973L15.5303 11.4697C15.8181 11.7576 15.8183 12.2422 15.5303 12.5303L10.5303 17.5303C10.2374 17.8232 9.76262 17.8231 9.46973 17.5303C9.17683 17.2374 9.17683 16.7626 9.46973 16.4697L13.1895 12.75H3C2.58579 12.75 2.25 12.4142 2.25 12C2.25 11.5858 2.58579 11.25 3 11.25H13.1895L9.46973 7.53027C9.17683 7.23738 9.17683 6.76262 9.46973 6.46973Z" fill="#6969D3"/>
</svg>
