<svg width="182" height="32" viewBox="0 0 182 32" fill="none" xmlns="http://www.w3.org/2000/svg">
<path fill-rule="evenodd" clip-rule="evenodd" d="M6.10352e-05 12.5388L4.3101 4.2033L27.4054 4L32.0001 12.5794L15.9797 29.2096L6.10352e-05 12.5388Z" fill="#EA212C"/>
<path d="M19.5201 10.895L16.1046 5.40576L12.6484 10.895H19.5201Z" fill="#F2586F"/>
<path d="M7.0274 5.40576L11.2561 11.0169L14.7529 5.40576H7.0274Z" fill="#FFAEBC"/>
<path d="M25.2958 5.40576L21.0671 11.0169L17.5703 5.40576H25.2958Z" fill="#FFAEBC"/>
<path d="M2.83008 10.8835L5.57838 5.42725L9.66042 10.8835H2.83008Z" fill="#F2586F" stroke="#F2586F" stroke-width="0.0228198"/>
<path d="M29.3421 10.8835L26.5938 5.42725L22.5117 10.8835H29.3421Z" fill="#F2586F" stroke="#F2586F" stroke-width="0.0228198"/>
<path d="M16.1918 27.8968L21.086 12.4341H11.2461L16.1918 27.8968Z" fill="#FF7085"/>
<path d="M23.194 8.91992L23.5721 10.3425C23.7946 11.1796 24.4485 11.8334 25.2857 12.056L26.7082 12.4342L25.2857 12.8123C24.4485 13.0349 23.7946 13.6887 23.5721 14.5259L23.194 15.9484L22.8157 14.5259C22.5932 13.6887 21.9394 13.0349 21.1022 12.8123L19.6797 12.4342L21.1022 12.056C21.9394 11.8334 22.5932 11.1796 22.8157 10.3425L23.194 8.91992Z" fill="white"/>
<path d="M9.13533 14.543L9.51354 15.9655C9.73603 16.8027 10.3899 17.4565 11.227 17.679L12.6496 18.0572L11.227 18.4354C10.3899 18.6579 9.73603 19.3118 9.51354 20.1489L9.13533 21.5714L8.75719 20.1489C8.53464 19.3118 7.88075 18.6579 7.04362 18.4354L5.62109 18.0572L7.04362 17.679C7.88075 17.4565 8.53464 16.8027 8.75719 15.9655L9.13533 14.543Z" fill="white"/>
<path d="M68.9929 10H61.1301V14H67.028V18H61.1301V22H68.9929V26H57.1986V6H68.9929V10Z" fill="white"/>
<path d="M76.3575 8.00079H78.324V10H80.2889V12.0008H82.2554V10H84.2204V8.00079H86.1869V6H90.1183V26H86.1869V14H84.2204V16.0008H82.2554V18H80.2889V16.0008H78.324V14H76.3575V26H72.4261V6H76.3575V8.00079Z" fill="white"/>
<path d="M97.4985 20.0008H101.43V6H105.361V20.0008H109.293V6H113.224V22H111.259V24.0008H109.293V26H107.328V24.0008H105.361V22H101.43V24.0008H99.465V26H97.4985V24.0008H95.5335V22H93.567V6H97.4985V20.0008Z" fill="white"/>
<path fill-rule="evenodd" clip-rule="evenodd" d="M128.436 8.00079H130.403V24.0008H128.436V26H118.608V24.0008H116.642V8.00079H118.608V6H128.436V8.00079ZM122.54 12.0008H120.573V20.0008H122.54V22H124.505V20.0008H126.471V12.0008H124.505V10H122.54V12.0008Z" fill="white"/>
<path fill-rule="evenodd" clip-rule="evenodd" d="M145.635 8.00079H147.601V16.0008H145.635V18H147.601V26H143.67V20.0008H137.772V26H133.84V6H145.635V8.00079ZM137.772 16.0008H143.67V10H137.772V16.0008Z" fill="white"/>
<path fill-rule="evenodd" clip-rule="evenodd" d="M162.835 8.00079H164.801V24.0008H162.835V26H151.041V6H162.835V8.00079ZM154.972 22H158.903V20.0008H160.87V12.0008H158.903V10H154.972V22Z" fill="white"/>
<path d="M180.034 8.00079H182V12.0008H178.069V10H172.171V14H180.034V16.0008H182V24.0008H180.034V26H170.206V24.0008H168.239V20.0008H172.171V22H178.069V18H170.206V16.0008H168.239V8.00079H170.206V6H180.034V8.00079Z" fill="white"/>
<path d="M53.7608 12.0008H49.8293V10H45.8979V12.0008H43.9314V20.0008H45.8979V22H49.8293V18H45.8979V14H53.7608V24.0008H51.7943V26H41.9665V24.0008H40V8.00079H41.9665V6H51.7943V8.00079H53.7608V12.0008Z" fill="white"/>
</svg>
