<svg width="48" height="48" viewBox="0 0 48 48" fill="none" xmlns="http://www.w3.org/2000/svg">
<path fill-rule="evenodd" clip-rule="evenodd" d="M12.5124 23.7489C18.418 21.2087 22.3559 19.534 24.3263 18.7249C29.9521 16.4147 31.1211 16.0134 31.883 16.0001C32.0506 15.9972 32.4253 16.0382 32.668 16.2327C32.873 16.3968 32.9294 16.6186 32.9563 16.7743C32.9833 16.93 33.0169 17.2846 32.9902 17.5616C32.6854 20.7241 31.3662 28.3986 30.6951 31.9406C30.4111 33.4394 29.852 33.9419 29.3107 33.9911C28.1343 34.098 27.2409 33.2235 26.1015 32.4861C24.3186 31.3323 23.3113 30.614 21.5807 29.488C19.5806 28.1868 20.8772 27.4716 22.017 26.3027C22.3153 25.9969 27.4986 21.3423 27.5989 20.92C27.6115 20.8672 27.6231 20.6704 27.5046 20.5664C27.3862 20.4625 27.2114 20.498 27.0852 20.5263C26.9064 20.5664 24.0581 22.425 18.5404 26.1022C17.7319 26.6503 16.9996 26.9174 16.3435 26.9034C15.6202 26.888 14.2288 26.4996 13.1945 26.1677C11.9258 25.7606 10.9175 25.5453 11.0053 24.8539C11.0511 24.4937 11.5534 24.1254 12.5124 23.7489Z" fill="white"/>
</svg>
