<svg width="16" height="15" viewBox="0 0 16 15" fill="none" xmlns="http://www.w3.org/2000/svg">
<path d="M7.62075 0.231931C7.65581 0.162296 7.70996 0.10368 7.7771 0.0626981C7.84424 0.0217163 7.92169 0 8.00072 0C8.07974 0 8.1572 0.0217163 8.22434 0.0626981C8.29148 0.10368 8.34563 0.162296 8.38068 0.231931L10.2285 3.91192C10.3502 4.15413 10.5299 4.36369 10.7522 4.52259C10.9744 4.6815 11.2325 4.78501 11.5044 4.82425L15.6368 5.41884C15.7151 5.42999 15.7887 5.46246 15.8492 5.51258C15.9097 5.56271 15.9547 5.62847 15.9792 5.70245C16.0037 5.77642 16.0066 5.85566 15.9877 5.93118C15.9687 6.00671 15.9287 6.07552 15.872 6.12982L12.8835 8.99108C12.6864 9.17991 12.5389 9.41301 12.4538 9.67031C12.3686 9.92761 12.3484 10.2014 12.3947 10.4681L13.1003 14.5107C13.1141 14.5876 13.1056 14.6668 13.0759 14.7393C13.0461 14.8117 12.9962 14.8745 12.9319 14.9204C12.8676 14.9663 12.7915 14.9936 12.7122 14.999C12.6329 15.0044 12.5537 14.9878 12.4835 14.9511L8.78945 13.0415C8.54604 12.9158 8.27524 12.8502 8.00032 12.8502C7.7254 12.8502 7.45459 12.9158 7.21119 13.0415L3.51792 14.9511C3.44779 14.9876 3.36865 15.004 3.2895 14.9985C3.21035 14.993 3.13437 14.9657 3.0702 14.9198C3.00603 14.8739 2.95624 14.8113 2.9265 14.7389C2.89676 14.6666 2.88827 14.5875 2.90198 14.5107L3.60671 10.4689C3.65327 10.2021 3.6331 9.9281 3.54795 9.67064C3.4628 9.41318 3.31523 9.17995 3.11796 8.99108L0.129428 6.13061C0.0723083 6.07637 0.0318315 6.00744 0.0126086 5.93169C-0.00661431 5.85593 -0.00381035 5.77639 0.0207009 5.70212C0.0452122 5.62786 0.0904452 5.56185 0.151248 5.51163C0.21205 5.4614 0.285977 5.42898 0.364607 5.41805L4.49623 4.82425C4.76841 4.78532 5.0269 4.68194 5.24943 4.52301C5.47197 4.36409 5.65189 4.15437 5.77372 3.91192L7.62075 0.231931Z" fill="#FFAA00"/>
</svg>
