<svg width="85" height="85" viewBox="0 0 85 85" fill="none" xmlns="http://www.w3.org/2000/svg">
<rect width="84.6222" height="84.6222" rx="42.3111" fill="#F3F4F6"/>
<path d="M34.8711 16.2155C35.9143 16.2155 36.76 17.0611 36.76 18.1043V65.7043C36.76 66.7476 35.9143 67.5932 34.8711 67.5932C33.8279 67.5932 32.9822 66.7475 32.9822 65.7043V18.1043C32.9822 17.0611 33.8279 16.2155 34.8711 16.2155Z" fill="url(#paint0_linear_78_866)"/>
<path d="M42.4267 24.5266C43.4699 24.5266 44.3155 25.3722 44.3155 26.4155V57.3932C44.3155 58.4364 43.4699 59.2821 42.4267 59.2821C41.3834 59.2821 40.5378 58.4364 40.5378 57.3932V26.4155C40.5378 25.3722 41.3834 24.5266 42.4267 24.5266Z" fill="url(#paint1_linear_78_866)"/>
<path d="M57.5378 25.2821C58.581 25.2821 59.4267 26.1278 59.4267 27.171V56.6377C59.4267 57.6809 58.581 58.5266 57.5378 58.5266C56.4946 58.5266 55.6489 57.6809 55.6489 56.6377V27.171C55.6489 26.1278 56.4946 25.2821 57.5378 25.2821Z" fill="url(#paint2_linear_78_866)"/>
<path d="M27.3155 29.0599C28.3587 29.0599 29.2044 29.9056 29.2044 30.9488V52.8599C29.2044 53.9031 28.3587 54.7488 27.3155 54.7488C26.2723 54.7488 25.4267 53.9031 25.4267 52.8599V30.9488C25.4267 29.9056 26.2723 29.0599 27.3155 29.0599Z" fill="url(#paint3_linear_78_866)"/>
<path d="M49.9822 33.5932C51.0254 33.5932 51.8711 34.4389 51.8711 35.4821V48.3266C51.8711 49.3698 51.0254 50.2155 49.9822 50.2155C48.939 50.2155 48.0933 49.3698 48.0933 48.3266V35.4821C48.0933 34.4389 48.939 33.5932 49.9822 33.5932Z" fill="url(#paint4_linear_78_866)"/>
<path d="M19.76 38.1266C20.8032 38.1266 21.6489 38.9722 21.6489 40.0155V43.7932C21.6489 44.8364 20.8032 45.6821 19.76 45.6821C18.7168 45.6821 17.8711 44.8364 17.8711 43.7932V40.0155C17.8711 38.9722 18.7168 38.1266 19.76 38.1266Z" fill="url(#paint5_linear_78_866)"/>
<path d="M65.0933 38.1266C66.1365 38.1266 66.9822 38.9722 66.9822 40.0155V43.7932C66.9822 44.8364 66.1365 45.6821 65.0933 45.6821C64.0501 45.6821 63.2044 44.8364 63.2044 43.7932V40.0155C63.2044 38.9722 64.0501 38.1266 65.0933 38.1266Z" fill="url(#paint6_linear_78_866)"/>
<defs>
<linearGradient id="paint0_linear_78_866" x1="66.9822" y1="41.9044" x2="17.8711" y2="41.9044" gradientUnits="userSpaceOnUse">
<stop stop-color="#F5877A"/>
<stop offset="0.5" stop-color="#B366FF"/>
<stop offset="1" stop-color="#7391FF"/>
</linearGradient>
<linearGradient id="paint1_linear_78_866" x1="66.9822" y1="41.9044" x2="17.8711" y2="41.9044" gradientUnits="userSpaceOnUse">
<stop stop-color="#F5877A"/>
<stop offset="0.5" stop-color="#B366FF"/>
<stop offset="1" stop-color="#7391FF"/>
</linearGradient>
<linearGradient id="paint2_linear_78_866" x1="66.9822" y1="41.9044" x2="17.8711" y2="41.9044" gradientUnits="userSpaceOnUse">
<stop stop-color="#F5877A"/>
<stop offset="0.5" stop-color="#B366FF"/>
<stop offset="1" stop-color="#7391FF"/>
</linearGradient>
<linearGradient id="paint3_linear_78_866" x1="66.9822" y1="41.9044" x2="17.8711" y2="41.9044" gradientUnits="userSpaceOnUse">
<stop stop-color="#F5877A"/>
<stop offset="0.5" stop-color="#B366FF"/>
<stop offset="1" stop-color="#7391FF"/>
</linearGradient>
<linearGradient id="paint4_linear_78_866" x1="66.9822" y1="41.9044" x2="17.8711" y2="41.9044" gradientUnits="userSpaceOnUse">
<stop stop-color="#F5877A"/>
<stop offset="0.5" stop-color="#B366FF"/>
<stop offset="1" stop-color="#7391FF"/>
</linearGradient>
<linearGradient id="paint5_linear_78_866" x1="66.9822" y1="41.9044" x2="17.8711" y2="41.9044" gradientUnits="userSpaceOnUse">
<stop stop-color="#F5877A"/>
<stop offset="0.5" stop-color="#B366FF"/>
<stop offset="1" stop-color="#7391FF"/>
</linearGradient>
<linearGradient id="paint6_linear_78_866" x1="66.9822" y1="41.9044" x2="17.8711" y2="41.9044" gradientUnits="userSpaceOnUse">
<stop stop-color="#F5877A"/>
<stop offset="0.5" stop-color="#B366FF"/>
<stop offset="1" stop-color="#7391FF"/>
</linearGradient>
</defs>
</svg>
